# xmcd
#
# Track frame offsets:
#	150
#	17707
#	38199
#	55863
#	73492
#	91089
#	108743
#	126920
#	140132
#	157889
#	176384
#	192189
#	208151
#
# Disc length: 3035 seconds
#
# Revision: 2
# Processed by: cddbd v1.5.1PL0 Copyright (c) Steve Scherf et al.
# Submitted via: EasyCDDAExtractor 7.1.2.1
#
DISCID=bd0bd90d
DTITLE=Lonestar - Let's Be Us Again
DYEAR=2004
DGENRE=Country
TTITLE0=County Fair
TTITLE1=Class Reunion (That Used To Be Us)
TTITLE2=Let's Be Us Again
TTITLE3=That Gets Me
TTITLE4=Women Rule The World
TTITLE5=What I Miss The Most
TTITLE6=Let Them Be Little
TTITLE7=T.G.I.F.
TTITLE8=Summertime
TTITLE9=How
TTITLE10=Mr. Mom
TTITLE11=From There To Here (With Randy Owen)
TTITLE12=Somebody's Someone (Dedicated To Fallen Heroes)
EXTD=
EXTT0=
EXTT1=
EXTT2=
EXTT3=
EXTT4=
EXTT5=
EXTT6=
EXTT7=
EXTT8=
EXTT9=
EXTT10=
EXTT11=
EXTT12=
PLAYORDER=
